<svg xmlns="http://www.w3.org/2000/svg" xmlns:xlink="http://www.w3.org/1999/xlink" width="40" zoomAndPan="magnify" viewBox="0 0 30 30.000001" height="40" preserveAspectRatio="xMidYMid meet" version="1.0"><defs><clipPath id="e5c51f9d42"><path d="M 0.484375 0 L 29.515625 0 L 29.515625 29.03125 L 0.484375 29.03125 Z M 0.484375 0 " clip-rule="nonzero"/></clipPath></defs><g clip-path="url(#e5c51f9d42)"><path fill="#f2f5fe" d="M 15 0 C 6.984375 0 0.484375 6.5 0.484375 14.515625 C 0.484375 22.53125 6.984375 29.03125 15 29.03125 C 23.015625 29.03125 29.515625 22.53125 29.515625 14.515625 C 29.515625 6.5 23.015625 0 15 0 Z M 22.03125 17.285156 L 17.769531 17.285156 L 17.769531 21.550781 L 12.230469 21.550781 L 12.230469 17.285156 L 7.96875 17.285156 L 7.96875 11.746094 L 12.230469 11.746094 L 12.230469 7.484375 L 17.769531 7.484375 L 17.769531 11.746094 L 22.03125 11.746094 L 22.03125 17.285156 " fill-opacity="1" fill-rule="nonzero"/></g></svg>