<svg xmlns="http://www.w3.org/2000/svg" xmlns:xlink="http://www.w3.org/1999/xlink" width="160" zoomAndPan="magnify" viewBox="0 0 120 39.749999" height="53" preserveAspectRatio="xMidYMid meet" version="1.0"><defs><g/><clipPath id="c38d6b2045"><path d="M 1.320312 3.949219 L 31.878906 3.949219 L 31.878906 34.507812 L 1.320312 34.507812 Z M 1.320312 3.949219 " clip-rule="nonzero"/></clipPath></defs><g fill="#f2f5fe" fill-opacity="1"><g transform="translate(36.419567, 31.554357)"><g><path d="M 9.65625 0.375 C 6.96875 0.375 4.898438 -0.207031 3.453125 -1.375 C 2.015625 -2.550781 1.054688 -4.441406 0.578125 -7.046875 L 5.96875 -7.84375 C 6.195312 -6.5 6.609375 -5.503906 7.203125 -4.859375 C 7.804688 -4.210938 8.640625 -3.890625 9.703125 -3.890625 C 10.785156 -3.890625 11.601562 -4.25 12.15625 -4.96875 C 12.71875 -5.695312 13 -6.738281 13 -8.09375 L 13 -21.71875 L 7.8125 -21.71875 L 7.8125 -25.984375 L 18.421875 -25.984375 L 18.421875 -8.21875 C 18.421875 -5.519531 17.648438 -3.410156 16.109375 -1.890625 C 14.578125 -0.378906 12.425781 0.375 9.65625 0.375 Z M 9.65625 0.375 "/></g></g><g transform="translate(57.426247, 31.554357)"><g><path d="M 10.8125 0.375 C 7.8125 0.375 5.503906 -0.507812 3.890625 -2.28125 C 2.273438 -4.0625 1.46875 -6.65625 1.46875 -10.0625 C 1.46875 -13.363281 2.285156 -15.898438 3.921875 -17.671875 C 5.554688 -19.441406 7.875 -20.328125 10.875 -20.328125 C 13.738281 -20.328125 15.925781 -19.375 17.4375 -17.46875 C 18.957031 -15.570312 19.71875 -12.789062 19.71875 -9.125 L 19.71875 -8.984375 L 6.921875 -8.984375 C 6.921875 -7.035156 7.28125 -5.566406 8 -4.578125 C 8.71875 -3.585938 9.738281 -3.09375 11.0625 -3.09375 C 12.894531 -3.09375 14.050781 -3.890625 14.53125 -5.484375 L 19.421875 -5.046875 C 18.003906 -1.429688 15.132812 0.375 10.8125 0.375 Z M 10.8125 -17.0625 C 9.59375 -17.0625 8.648438 -16.632812 7.984375 -15.78125 C 7.328125 -14.9375 6.984375 -13.75 6.953125 -12.21875 L 14.703125 -12.21875 C 14.597656 -13.832031 14.207031 -15.039062 13.53125 -15.84375 C 12.851562 -16.65625 11.945312 -17.0625 10.8125 -17.0625 Z M 10.8125 -17.0625 "/></g></g><g transform="translate(78.432926, 31.554357)"><g><path d="M 19.453125 -5.828125 C 19.453125 -3.898438 18.660156 -2.382812 17.078125 -1.28125 C 15.503906 -0.175781 13.320312 0.375 10.53125 0.375 C 7.789062 0.375 5.691406 -0.0546875 4.234375 -0.921875 C 2.773438 -1.796875 1.804688 -3.148438 1.328125 -4.984375 L 5.875 -5.65625 C 6.132812 -4.707031 6.582031 -4.035156 7.21875 -3.640625 C 7.851562 -3.253906 8.957031 -3.0625 10.53125 -3.0625 C 11.976562 -3.0625 13.035156 -3.242188 13.703125 -3.609375 C 14.367188 -3.984375 14.703125 -4.5625 14.703125 -5.34375 C 14.703125 -5.988281 14.429688 -6.5 13.890625 -6.875 C 13.359375 -7.25 12.453125 -7.5625 11.171875 -7.8125 C 8.242188 -8.394531 6.269531 -8.929688 5.25 -9.421875 C 4.226562 -9.921875 3.453125 -10.566406 2.921875 -11.359375 C 2.390625 -12.160156 2.125 -13.140625 2.125 -14.296875 C 2.125 -16.203125 2.859375 -17.6875 4.328125 -18.75 C 5.796875 -19.8125 7.875 -20.34375 10.5625 -20.34375 C 12.9375 -20.34375 14.84375 -19.878906 16.28125 -18.953125 C 17.726562 -18.035156 18.632812 -16.703125 19 -14.953125 L 14.40625 -14.46875 C 14.257812 -15.28125 13.894531 -15.882812 13.3125 -16.28125 C 12.738281 -16.6875 11.820312 -16.890625 10.5625 -16.890625 C 9.332031 -16.890625 8.410156 -16.734375 7.796875 -16.421875 C 7.179688 -16.109375 6.875 -15.582031 6.875 -14.84375 C 6.875 -14.269531 7.109375 -13.8125 7.578125 -13.46875 C 8.054688 -13.132812 8.851562 -12.851562 9.96875 -12.625 C 11.53125 -12.3125 12.914062 -11.984375 14.125 -11.640625 C 15.34375 -11.304688 16.316406 -10.90625 17.046875 -10.4375 C 17.773438 -9.96875 18.359375 -9.367188 18.796875 -8.640625 C 19.234375 -7.910156 19.453125 -6.972656 19.453125 -5.828125 Z M 19.453125 -5.828125 "/></g></g><g transform="translate(99.439606, 31.554357)"><g><path d="M 7.75 0.328125 C 6.21875 0.328125 5.039062 -0.0820312 4.21875 -0.90625 C 3.394531 -1.738281 2.984375 -3 2.984375 -4.6875 L 2.984375 -16.453125 L 0.46875 -16.453125 L 0.46875 -19.953125 L 3.25 -19.953125 L 4.875 -24.640625 L 8.109375 -24.640625 L 8.109375 -19.953125 L 11.890625 -19.953125 L 11.890625 -16.453125 L 8.109375 -16.453125 L 8.109375 -6.078125 C 8.109375 -5.109375 8.289062 -4.394531 8.65625 -3.9375 C 9.03125 -3.476562 9.601562 -3.25 10.375 -3.25 C 10.78125 -3.25 11.359375 -3.332031 12.109375 -3.5 L 12.109375 -0.296875 C 10.835938 0.117188 9.382812 0.328125 7.75 0.328125 Z M 7.75 0.328125 "/></g></g></g><g clip-path="url(#c38d6b2045)"><path fill="#f2f5fe" d="M 16.582031 3.949219 C 8.152344 3.949219 1.320312 10.78125 1.320312 19.210938 C 1.320312 27.640625 8.152344 34.472656 16.582031 34.472656 C 25.011719 34.472656 31.84375 27.640625 31.84375 19.210938 C 31.84375 10.78125 25.011719 3.949219 16.582031 3.949219 Z M 23.976562 22.125 L 19.496094 22.125 L 19.496094 26.605469 L 13.667969 26.605469 L 13.667969 22.125 L 9.1875 22.125 L 9.1875 16.296875 L 13.667969 16.296875 L 13.667969 11.816406 L 19.496094 11.816406 L 19.496094 16.296875 L 23.976562 16.296875 L 23.976562 22.125 " fill-opacity="1" fill-rule="nonzero"/></g></svg>