<svg xmlns="http://www.w3.org/2000/svg" xmlns:xlink="http://www.w3.org/1999/xlink" width="160" zoomAndPan="magnify" viewBox="0 0 120 39.749999" height="53" preserveAspectRatio="xMidYMid meet" version="1.0"><defs><g/><clipPath id="67fe04e004"><path d="M 1.320312 3.949219 L 31.878906 3.949219 L 31.878906 34.507812 L 1.320312 34.507812 Z M 1.320312 3.949219 " clip-rule="nonzero"/></clipPath></defs><g fill="#f2f5fe" fill-opacity="1"><g transform="translate(34.630268, 32.844332)"><g><path d="M 15.632812 -8.007812 L 15.632812 -27.910156 L 10.460938 -27.910156 L 10.460938 -8.15625 C 10.460938 -5.703125 9.628906 -4.492188 7.96875 -4.492188 C 6.683594 -4.492188 5.855469 -5.210938 5.515625 -6.609375 L 0.339844 -6.609375 C 0.832031 -1.886719 4.039062 0.492188 8.082031 0.492188 C 12.765625 0.492188 15.632812 -2.757812 15.632812 -8.007812 Z M 15.632812 -8.007812 "/></g></g></g><g fill="#f2f5fe" fill-opacity="1"><g transform="translate(52.752564, 32.844332)"><g><path d="M 22.960938 -10.160156 C 22.960938 -16.65625 18.390625 -21.414062 12.160156 -21.414062 C 6.003906 -21.414062 1.132812 -16.542969 1.132812 -10.386719 C 1.132812 -4.265625 6.082031 0.492188 12.460938 0.492188 C 16.691406 0.492188 21.035156 -1.886719 22.433594 -6.195312 L 16.957031 -6.195312 C 15.671875 -4.683594 14.425781 -4.117188 12.347656 -4.117188 C 9.367188 -4.117188 7.175781 -5.703125 6.570312 -8.234375 L 22.773438 -8.234375 C 22.921875 -8.949219 22.960938 -9.402344 22.960938 -10.160156 Z M 18.015625 -12.652344 L 6.421875 -12.652344 C 7.214844 -15.332031 9.253906 -16.804688 12.234375 -16.804688 C 15.332031 -16.804688 17.371094 -15.332031 18.015625 -12.652344 Z M 18.015625 -12.652344 "/></g></g></g><g fill="#f2f5fe" fill-opacity="1"><g transform="translate(76.915627, 32.844332)"><g><path d="M 15.859375 -6.648438 C 15.859375 -9.742188 14.425781 -11.40625 10.046875 -12.765625 C 6.609375 -13.859375 6.496094 -13.933594 6.496094 -15.03125 C 6.496094 -16.050781 7.328125 -16.804688 8.421875 -16.804688 C 9.480469 -16.804688 10.160156 -16.238281 10.386719 -15.144531 L 15.292969 -15.144531 C 15.105469 -19.070312 11.972656 -21.414062 8.421875 -21.414062 C 4.53125 -21.414062 1.472656 -18.617188 1.472656 -15.03125 C 1.472656 -11.972656 3.132812 -10.234375 7.289062 -8.835938 C 10.648438 -7.703125 10.839844 -7.363281 10.839844 -6.15625 C 10.839844 -4.984375 9.855469 -4.117188 8.574219 -4.117188 C 7.101562 -4.117188 6.269531 -4.871094 5.777344 -6.648438 L 0.71875 -6.648438 C 1.246094 -1.773438 4.230469 0.492188 8.382812 0.492188 C 12.574219 0.492188 15.859375 -2.644531 15.859375 -6.648438 Z M 15.859375 -6.648438 "/></g></g></g><g fill="#f2f5fe" fill-opacity="1"><g transform="translate(93.527738, 32.844332)"><g><path d="M 10.839844 -16.351562 L 10.839844 -20.921875 L 7.816406 -20.921875 L 7.816406 -27.910156 L 2.792969 -27.910156 L 2.792969 -20.921875 L 0.339844 -20.921875 L 0.339844 -16.351562 L 2.792969 -16.351562 L 2.792969 0 L 7.816406 0 L 7.816406 -16.351562 Z M 10.839844 -16.351562 "/></g></g></g><g clip-path="url(#67fe04e004)"><path fill="#f2f5fe" d="M 16.582031 3.949219 C 8.152344 3.949219 1.320312 10.78125 1.320312 19.210938 C 1.320312 27.640625 8.152344 34.472656 16.582031 34.472656 C 25.011719 34.472656 31.84375 27.640625 31.84375 19.210938 C 31.84375 10.78125 25.011719 3.949219 16.582031 3.949219 Z M 23.976562 22.125 L 19.496094 22.125 L 19.496094 26.605469 L 13.667969 26.605469 L 13.667969 22.125 L 9.1875 22.125 L 9.1875 16.296875 L 13.667969 16.296875 L 13.667969 11.816406 L 19.496094 11.816406 L 19.496094 16.296875 L 23.976562 16.296875 L 23.976562 22.125 " fill-opacity="1" fill-rule="nonzero"/></g></svg>